<svg version="1.1" xmlns="http://www.w3.org/2000/svg" xmlns:xlink="http://www.w3.org/1999/xlink" class="thumbnail-icon" viewBox="1.1547050476074219 0.000003814697265625 197.6905975341797 199.99998474121094">
  <g data-paper-data="{...existing data...}">
    <path d="M74.63341,79.29003c10.49652,-17.05684 25.36659,-30.17749 41.98608,-37.17517c-14.43271,-27.55336 -40.67401,-43.7355 -65.60325,-41.98608c11.37123,12.68329 20.99304,34.55104 22.74246,70.85151c0.43735,3.06148 0.87471,5.68561 0.87471,8.30974zM52.32831,72.29235c-1.74942,-40.23666 -14.43271,-56.85615 -24.49188,-63.85383c-24.49188,16.18213 -33.67633,53.35731 -20.99304,88.34571c10.05916,27.11601 30.61485,45.92227 52.4826,52.04524c-1.31206,-10.49652 -1.31206,-21.43039 0.87471,-32.36427c-3.93619,-12.68329 -6.99768,-27.11601 -7.87239,-44.17285zM148.5464,49.98724h-4.37355c-27.11601,0 -54.66937,20.99304 -66.91531,53.79466c-13.12065,35.42575 -3.49884,72.16357 20.99304,88.34571c13.558,-13.99536 25.80394,-35.86311 27.11601,-71.28886c2.18677,-36.73782 11.80858,-58.16821 23.17981,-70.85151zM172.16357,57.85963c-10.05916,6.99768 -22.74246,23.61717 -24.49188,63.41647c-1.74942,36.30046 -12.68329,61.2297 -26.67865,78.28654c1.74942,0 3.49884,0.43735 5.24826,0.43735c27.11601,0 54.66937,-21.43039 66.91531,-53.79466c12.68329,-35.42575 3.49884,-72.16357 -20.99304,-88.34571z" fill="#000000" fill-rule="evenodd"></path>
  </g>
</svg>
